Patient4_TMGait_0pt3_02_left_01_GRF.mot
version=1
nRows=45
nColumns=19
inDegrees=no
endheader
time	F1x	F1y	F1z	M1x	M1y	M1z	F2x	F2y	F2z	M2x	M2y	M2z	EC1x	EC1y	EC1z	EC2x	EC2y	EC2z
1.19	2.9761	2.97	-0.43492	-0.99662	-0.92533	6.8798	-17.7048	763.247	-42.2026	274.1232	49.3417	730.8262	-0.0592	0.0182	-0.0073	-0.0462	0.0165	0.9585
1.2095	1.8334	2.088	-0.25483	-0.70063	-0.75129	4.7446	-19.5658	772.3662	-43.9425	276.9619	51.6157	736.5616	-0.0592	0.0182	-0.0073	-0.0462	0.0165	0.9585
1.229	0.86128	1.3581	-0.11101	-0.4508	-0.58058	2.9607	-21.3943	785.3651	-45.7741	281.1229	53.8868	745.5349	-0.0592	0.0182	-0.0073	-0.0462	0.0165	0.9585
1.2485	0.11886	0.82111	-0.0037586	-0.26532	-0.43919	1.6233	-22.9496	802.0798	-47.4406	286.6565	55.8147	757.5686	-0.0592	0.0182	-0.0073	-0.0462	0.0165	0.9585
1.268	-0.39773	0.47007	0.073568	-0.14479	-0.34076	0.72005	-23.9735	821.7067	-48.6443	293.3924	57.0316	771.8281	-0.0592	0.0182	-0.0073	-0.0462	0.0165	0.9585
1.2875	-0.72519	0.27102	0.13005	-0.079542	-0.28981	0.18207	-24.2272	842.6976	-49.1566	300.854	57.246	786.7879	-0.0592	0.0182	-0.0073	-0.0462	0.0165	0.9585
1.307	-0.91463	0.17473	0.17619	-0.053799	-0.28604	-0.086453	-23.562	862.7594	-48.8894	308.2393	56.3278	800.3014	-0.0592	0.0182	-0.0073	-0.0462	0.0165	0.9585
1.3265	-1.0194	0.12481	0.22052	-0.04809	-0.32533	-0.18558	-21.9689	879.1405	-47.8875	314.5258	54.3197	809.907	-0.0592	0.0182	-0.0073	-0.0462	0.0165	0.9585
1.346	-1.084	0.063279	0.27013	-0.037283	-0.40406	-0.21756	-19.5676	889.1858	-46.2804	318.6843	51.3893	813.3409	-0.0592	0.0182	-0.0073	-0.0462	0.0165	0.9585
1.3655	-1.1419	-0.070896	0.32819	0.005826	-0.51573	-0.28527	-16.5433	890.9571	-44.2394	319.9263	47.774	809.0673	-0.0592	0.0182	-0.0073	-0.0462	0.0165	0.9585
1.385	-1.2121	-0.34725	0.39527	0.10712	-0.65134	-0.48156	-13.0709	883.6594	-41.956	317.8792	43.732	796.5979	-0.0592	0.0182	-0.0073	-0.0462	0.0165	0.9585
1.4045	-1.2999	-0.83644	0.46743	0.29043	-0.79743	-0.88512	-9.273	867.7411	-39.6191	312.6373	39.5034	776.5283	-0.0592	0.0182	-0.0073	-0.0462	0.0165	0.9585
1.424	-1.3894	-1.5888	0.53502	0.57402	-0.93284	-1.5588	-5.1994	844.7528	-37.399	304.7177	35.2871	750.3742	-0.0592	0.0182	-0.0073	-0.0462	0.0165	0.9585
1.4435	-1.4436	-2.6138	0.58277	0.96243	-1.0255	-2.5251	-0.86728	817.0628	-35.4375	294.9597	31.2396	720.3118	-0.0592	0.0182	-0.0073	-0.0462	0.0165	0.9585
1.463	-1.4038	-3.8585	0.58747	1.436	-1.03	-3.7397	3.7003	787.484	-33.8285	284.3866	27.4713	688.8575	-0.0592	0.0182	-0.0073	-0.0462	0.0165	0.9585
1.4825	-1.1911	-5.1741	0.51372	1.9366	-0.88124	-5.0597	8.465	758.8921	-32.6074	274.0616	24.0382	658.5307	-0.0592	0.0182	-0.0073	-0.0462	0.0165	0.9585
1.502	-0.70851	-6.2706	0.31766	2.3507	-0.49687	-6.1975	13.3592	733.8458	-31.76	264.9409	20.9553	631.5379	-0.0592	0.0182	-0.0073	-0.0462	0.0165	0.9585
1.5215	0.15416	-6.6686	-0.047581	2.4895	0.21432	-6.6741	18.2665	714.2356	-31.2482	257.7378	18.2287	609.4943	-0.0592	0.0182	-0.0073	-0.0462	0.0165	0.9585
1.541	1.5045	-5.6642	-0.62317	2.0742	1.3354	-5.7819	23.0304	701.0087	-31.0392	252.8133	15.8795	593.2087	-0.0592	0.0182	-0.0073	-0.0462	0.0165	0.9585
1.5605	3.415	-2.3176	-1.4301	0.73221	2.9139	-2.5733	27.4617	694.0136	-31.1144	250.117	13.9483	582.5687	-0.0592	0.0182	-0.0073	-0.0462	0.0165	0.9585
1.58	5.8709	4.5116	-2.4512	-1.9832	4.9237	4.1062	31.3627	692.0306	-31.461	249.1997	12.4813	576.5783	-0.0592	0.0182	-0.0073	-0.0462	0.0165	0.9585
1.5995	8.701	16.0376	-3.6019	-6.5409	7.2101	15.4872	34.5383	692.9998	-32.0476	249.3039	11.515	573.5592	-0.0592	0.0182	-0.0073	-0.0462	0.0165	0.9585
1.619	11.4869	33.2884	-4.6924	-13.3299	9.415	32.6273	36.7945	694.3796	-32.7936	249.5021	11.0552	571.4557	-0.0592	0.0182	-0.0073	-0.0462	0.0165	0.9585
1.6385	13.4529	56.7276	-5.4032	-22.5114	10.9053	56.0375	37.9635	693.5609	-33.5599	248.8544	11.056	568.1573	-0.0592	0.0182	-0.0073	-0.0462	0.0165	0.9585
1.658	13.6723	86.046	-5.3011	-33.9343	10.8733	85.4732	37.9685	688.3137	-34.1701	246.5766	11.4071	561.8389	-0.0592	0.0182	-0.0073	-0.0462	0.0165	0.9585
1.6775	11.8475	120.4759	-3.9394	-47.2555	8.74	120.22	36.8856	677.1236	-34.4452	242.1576	11.9369	551.2171	-0.0592	0.0182	-0.0073	-0.0462	0.0165	0.9585
1.697	8.2556	158.6992	-0.96363	-61.922	4.2422	158.9397	34.9453	659.2206	-34.2503	235.3577	12.4517	535.5706	-0.0592	0.0182	-0.0073	-0.0462	0.0165	0.9585
1.7165	3.4272	198.7602	3.6057	-77.1692	-2.3858	199.5894	32.4558	634.4732	-33.5211	226.1605	12.7864	514.675	-0.0592	0.0182	-0.0073	-0.0462	0.0165	0.9585
1.736	-1.9845	238.6132	9.1351	-92.251	-10.2074	239.9794	29.708	603.3357	-32.2836	214.7514	12.8521	488.7867	-0.0592	0.0182	-0.0073	-0.0462	0.0165	0.9585
1.7555	-7.2737	276.8177	14.7789	-106.6808	-18.0587	278.4787	26.9339	566.8051	-30.6434	201.5024	12.6461	458.6276	-0.0592	0.0182	-0.0073	-0.0462	0.0165	0.9585
1.775	-11.878	312.8271	19.9486	-120.3014	-25.1165	314.3864	24.2867	526.3509	-28.7295	186.9457	12.2143	425.3341	-0.0592	0.0182	-0.0073	-0.0462	0.0165	0.9585
1.7945	-15.4508	346.6992	24.2863	-133.1646	-30.887	347.6896	21.841	483.7695	-26.6632	171.7202	11.6205	390.3351	-0.0592	0.0182	-0.0073	-0.0462	0.0165	0.9585
1.814	-17.8008	378.5249	27.686	-145.3099	-35.1995	378.4782	19.6139	441.0234	-24.5659	156.5127	10.9433	355.2104	-0.0592	0.0182	-0.0073	-0.0462	0.0165	0.9585
1.8335	-18.8597	408.0168	30.2082	-156.613	-38.1058	406.5244	17.5886	400.0792	-22.5635	142.0019	10.2747	321.5474	-0.0592	0.0182	-0.0073	-0.0462	0.0165	0.9585
1.853	-18.7303	434.5925	31.9525	-166.8314	-39.7696	431.3669	15.7349	362.7459	-20.7662	128.8056	9.7014	290.8057	-0.0592	0.0182	-0.0073	-0.0462	0.0165	0.9585
1.8725	-17.6867	457.6572	32.9859	-175.7216	-40.3865	452.5719	14.0404	330.4883	-19.238	117.4192	9.2705	264.1629	-0.0592	0.0182	-0.0073	-0.0462	0.0165	0.9585
1.892	-16.0937	476.8567	33.3154	-183.143	-40.12	469.9588	12.5285	304.2109	-17.9851	108.1435	8.9736	242.3426	-0.0592	0.0182	-0.0073	-0.0462	0.0165	0.9585
1.9115	-14.3109	492.1738	32.9215	-189.087	-39.0941	483.666	11.2505	284.0524	-16.9652	101.0146	8.7565	225.456	-0.0592	0.0182	-0.0073	-0.0462	0.0165	0.9585
1.931	-12.6037	503.8498	31.8598	-193.6327	-37.458	494.0352	10.2836	269.2601	-16.1131	95.7567	8.5435	212.9042	-0.0592	0.0182	-0.0073	-0.0462	0.0165	0.9585
1.9505	-11.109	512.3475	30.3267	-196.9254	-35.4425	501.5576	9.6897	258.2433	-15.3726	91.7999	8.272	203.4232	-0.0592	0.0182	-0.0073	-0.0462	0.0165	0.9585
1.97	-9.8721	518.4534	28.6295	-199.2242	-33.3486	506.9907	9.4394	248.881	-14.7028	88.3918	7.9211	195.3435	-0.0592	0.0182	-0.0073	-0.0462	0.0165	0.9585
1.9895	-8.8895	523.3579	27.0847	-200.946	-31.4718	511.446	9.4106	238.994	-14.0605	84.7667	7.503	186.964	-0.0592	0.0182	-0.0073	-0.0462	0.0165	0.9585
2.009	-8.1328	528.5504	25.9485	-202.6376	-30.0419	516.297	9.4368	226.7946	-13.3835	80.3038	7.0315	176.8983	-0.0592	0.0182	-0.0073	-0.0462	0.0165	0.9585
2.0285	-7.5735	535.5187	25.4044	-204.8636	-29.2194	522.9083	9.3457	211.2207	-12.5978	74.6436	6.5146	164.3332	-0.0592	0.0182	-0.0073	-0.0462	0.0165	0.9585
2.048	-7.2033	545.4048	25.5711	-208.0705	-29.1113	532.3166	9.0064	192.0785	-11.6494	67.7357	5.9602	149.1279	-0.0592	0.0182	-0.0073	-0.0462	0.0165	0.9585
